<svg width="175" height="46" viewBox="0 0 175 46" fill="none" xmlns="http://www.w3.org/2000/svg">
<g clip-path="url(#clip0_9_2)">
<path d="M54.0699 30.322L66.0089 15.677H54.4019V12.023H70.9529V15.164L59.4059 29.809H71.0429V33.463H54.0699V30.322ZM80.8489 33.765C79.5819 33.765 78.4369 33.553 77.4119 33.131C76.3869 32.688 75.5129 32.094 74.7889 31.349C74.0659 30.584 73.5029 29.718 73.1009 28.752C72.7189 27.766 72.5279 26.729 72.5279 25.642C72.5279 24.132 72.8599 22.753 73.5229 21.505C74.2059 20.257 75.1709 19.26 76.4169 18.515C77.6829 17.75 79.1709 17.368 80.8789 17.368C82.6069 17.368 84.0839 17.75 85.3099 18.515C86.5359 19.26 87.4709 20.257 88.1139 21.505C88.7769 22.733 89.1089 24.061 89.1089 25.491C89.1089 25.732 89.0989 25.984 89.0789 26.246C89.0589 26.487 89.0389 26.689 89.0189 26.85H76.8089C76.8889 27.655 77.1209 28.359 77.5019 28.963C77.9039 29.567 78.4069 30.03 79.0099 30.353C79.6329 30.654 80.2959 30.805 80.9989 30.805C81.8029 30.805 82.5569 30.614 83.2599 30.232C83.9839 29.829 84.4759 29.306 84.7379 28.661L88.2049 29.628C87.8229 30.433 87.2699 31.148 86.5459 31.772C85.8429 32.396 85.0089 32.889 84.0439 33.251C83.0799 33.594 82.0139 33.765 80.8489 33.765ZM76.7189 24.283H84.9789C84.8979 23.478 84.667 22.783 84.285 22.199C83.924 21.595 83.4409 21.132 82.8379 20.81C82.2349 20.468 81.5619 20.297 80.8179 20.297C80.0949 20.297 79.4319 20.468 78.8289 20.81C78.2459 21.132 77.764 21.595 77.382 22.199C77.02 22.783 76.7989 23.478 76.7189 24.283ZM100.976 21.142C99.7499 21.142 98.6539 21.384 97.6899 21.867C96.7249 22.33 96.0319 23.005 95.6099 23.89V33.463H91.5699V17.64H95.2779V21.022C95.8409 19.935 96.5539 19.079 97.4189 18.455C98.2819 17.831 99.1969 17.489 100.162 17.428H100.674C100.795 17.428 100.895 17.438 100.976 17.458V21.142ZM110.318 33.765C109.031 33.765 107.876 33.553 106.851 33.131C105.826 32.688 104.951 32.084 104.228 31.319C103.525 30.554 102.982 29.678 102.6 28.692C102.218 27.705 102.027 26.668 102.027 25.581C102.027 24.474 102.218 23.427 102.6 22.441C102.982 21.455 103.525 20.579 104.228 19.814C104.951 19.049 105.826 18.455 106.851 18.032C107.876 17.589 109.031 17.368 110.318 17.368C111.604 17.368 112.749 17.589 113.754 18.032C114.78 18.455 115.654 19.049 116.377 19.814C117.101 20.579 117.643 21.455 118.005 22.441C118.387 23.427 118.578 24.474 118.578 25.581C118.578 26.668 118.387 27.705 118.005 28.692C117.643 29.678 117.101 30.554 116.377 31.319C115.674 32.084 114.81 32.688 113.785 33.131C112.76 33.553 111.604 33.765 110.318 33.765ZM106.188 25.581C106.188 26.507 106.369 27.333 106.731 28.058C107.092 28.762 107.584 29.316 108.207 29.718C108.83 30.121 109.534 30.322 110.318 30.322C111.082 30.322 111.775 30.121 112.398 29.718C113.021 29.296 113.514 28.732 113.875 28.027C114.257 27.303 114.448 26.477 114.448 25.551C114.448 24.645 114.257 23.83 113.875 23.105C113.514 22.381 113.021 21.817 112.398 21.414C111.775 21.012 111.082 20.81 110.318 20.81C109.534 20.81 108.83 21.022 108.207 21.444C107.584 21.847 107.092 22.411 106.731 23.136C106.369 23.84 106.188 24.655 106.188 25.581ZM121.432 33.463V12.023H129.21C131.541 12.023 133.491 12.506 135.059 13.472C136.625 14.419 137.801 15.707 138.586 17.338C139.369 18.948 139.761 20.74 139.761 22.713C139.761 24.887 139.329 26.779 138.465 28.39C137.601 30 136.374 31.248 134.787 32.134C133.219 33.02 131.36 33.463 129.21 33.463H121.432ZM135.571 22.713C135.571 21.324 135.32 20.106 134.817 19.059C134.315 17.992 133.591 17.167 132.646 16.583C131.702 15.979 130.556 15.677 129.21 15.677H125.592V29.809H129.21C130.576 29.809 131.732 29.507 132.677 28.903C133.621 28.279 134.335 27.433 134.817 26.366C135.32 25.279 135.571 24.061 135.571 22.713ZM149.945 33.765C148.679 33.765 147.534 33.553 146.509 33.131C145.483 32.688 144.609 32.094 143.886 31.349C143.162 30.584 142.599 29.718 142.198 28.752C141.816 27.766 141.625 26.729 141.625 25.642C141.625 24.132 141.956 22.753 142.62 21.505C143.303 20.257 144.268 19.26 145.514 18.515C146.78 17.75 148.268 17.368 149.976 17.368C151.704 17.368 153.182 17.75 154.407 18.515C155.634 19.26 156.567 20.257 157.211 21.505C157.874 22.733 158.205 24.061 158.205 25.491C158.205 25.732 158.195 25.984 158.176 26.246C158.156 26.487 158.135 26.689 158.115 26.85H145.906C145.986 27.655 146.217 28.359 146.599 28.963C147.001 29.567 147.503 30.03 148.106 30.353C148.73 30.654 149.392 30.805 150.096 30.805C150.9 30.805 151.653 30.614 152.358 30.232C153.081 29.829 153.573 29.306 153.834 28.661L157.301 29.628C156.919 30.433 156.366 31.148 155.643 31.772C154.94 32.396 154.105 32.889 153.141 33.251C152.177 33.594 151.111 33.765 149.945 33.765ZM145.816 24.283H154.076C153.996 23.478 153.764 22.783 153.382 22.199C153.02 21.595 152.538 21.132 151.935 20.81C151.332 20.468 150.659 20.297 149.915 20.297C149.192 20.297 148.529 20.468 147.925 20.81C147.343 21.132 146.86 21.595 146.478 22.199C146.116 22.783 145.896 23.478 145.816 24.283ZM164.476 33.463L158.657 17.64H162.848L166.827 29.779L170.837 17.64H174.666L168.878 33.463H164.476Z" fill="white"/>
<path d="M23.9189 0C11.2199 0 0.918945 10.3 0.918945 23C0.918945 35.7 11.2199 46 23.9189 46C36.6189 46 46.9189 35.7 46.9189 23C46.9189 10.3 36.6189 0 23.9189 0ZM21.1969 10.917C18.2379 11.979 17.7069 13.221 17.7069 15.365C17.7069 15.744 17.7349 16.219 17.7639 16.721C17.7919 17.205 17.8209 17.698 17.8209 18.078C17.8209 20.363 16.7969 21.672 14.3869 22.469L12.8039 22.991L14.3869 23.512C16.7869 24.299 17.8209 25.618 17.8209 27.904C17.8209 28.273 17.7919 28.776 17.7639 29.26C17.7349 29.763 17.7069 30.237 17.7069 30.616C17.7069 32.769 18.2379 34.012 21.1969 35.064V38.024C14.9949 36.81 13.7239 34.59 13.7239 31.422C13.7239 31.166 13.7519 30.72 13.7709 30.256C13.7989 29.753 13.8279 29.222 13.8279 28.89C13.8279 25.817 12.4999 24.555 9.24695 24.555H8.84895V21.407H9.24695C12.4999 21.407 13.8279 20.155 13.8279 17.072C13.8279 16.74 13.7989 16.209 13.7709 15.706C13.7429 15.251 13.7239 14.805 13.7239 14.54C13.7239 11.381 14.9949 9.162 21.1969 7.948V10.917ZM23.9189 29.99C22.8669 29.99 22.0129 29.137 22.0129 28.084C22.0129 27.031 22.8669 26.177 23.9189 26.177C24.9719 26.177 25.8259 27.031 25.8259 28.084C25.8259 29.137 24.9719 29.99 23.9189 29.99ZM23.9189 19.823C22.8669 19.823 22.0129 18.969 22.0129 17.916C22.0129 16.863 22.8669 16.01 23.9189 16.01C24.9719 16.01 25.8259 16.863 25.8259 17.916C25.8259 18.969 24.9719 19.823 23.9189 19.823ZM38.9899 24.574H38.5919C35.3389 24.574 34.0109 25.826 34.0109 28.909C34.0109 29.241 34.0389 29.772 34.0679 30.275C34.0959 30.73 34.1149 31.176 34.1149 31.441C34.1149 34.6 32.8439 36.829 26.6419 38.042V35.083C29.6009 34.021 30.1319 32.779 30.1319 30.635C30.1319 30.256 30.1029 29.781 30.0749 29.279C30.0459 28.795 30.0179 28.292 30.0179 27.923C30.0179 25.637 31.0419 24.328 33.4509 23.531L35.0349 23.01L33.4509 22.488C31.0519 21.691 30.0179 20.382 30.0179 18.097C30.0179 17.727 30.0459 17.224 30.0749 16.74C30.1029 16.238 30.1319 15.763 30.1319 15.384C30.1319 13.231 29.6009 11.989 26.6419 10.936V7.967C32.8439 9.181 34.1149 11.4 34.1149 14.559C34.1149 14.815 34.0869 15.261 34.0679 15.725C34.0389 16.228 34.0109 16.759 34.0109 17.091C34.0109 20.164 35.3389 21.426 38.5919 21.426H38.9899V24.574Z" fill="white"/>
</g>
<defs>
<clipPath id="clip0_9_2">
<rect width="175" height="46" fill="white"/>
</clipPath>
</defs>
</svg>
